<svg xmlns="http://www.w3.org/2000/svg" xmlns:xlink="http://www.w3.org/1999/xlink" width="304px" height="270px" style="shape-rendering:geometricPrecision; text-rendering:geometricPrecision; image-rendering:optimizeQuality; fill-rule:evenodd; clip-rule:evenodd"><g><path style="opacity:0.407" fill="#29abe2" d="M 176.5,-0.5 C 185.833,-0.5 195.167,-0.5 204.5,-0.5C 206.059,0.829048 207.725,2.16238 209.5,3.5C 213.285,4.98058 216.952,6.64725 220.5,8.5C 222.517,7.82573 224.183,6.65906 225.5,5C 229.268,3.7909 232.268,4.7909 234.5,8C 233.66,9.66647 234.16,9.83314 236,8.5C 237.912,9.69192 239.912,10.6919 242,11.5C 243.621,14.3006 243.455,16.8006 241.5,19C 243.134,19.4935 244.801,19.6602 246.5,19.5C 246.281,20.675 246.614,21.675 247.5,22.5C 249.517,23.1743 251.183,24.3409 252.5,26C 251.378,27.6134 251.878,28.7801 254,29.5C 255.889,40.7084 261.389,43.3751 270.5,37.5C 271.941,38.8651 273.274,40.3651 274.5,42C 273.206,46.957 270.206,50.2903 265.5,52C 264.773,53.3988 264.273,54.8988 264,56.5C 262.028,57.3052 260.528,58.6385 259.5,60.5C 263.959,63.4235 266.959,67.4235 268.5,72.5C 265.517,78.8212 261.35,84.1545 256,88.5C 256.504,90.8927 257.004,93.0594 257.5,95C 255.238,100.527 251.571,104.86 246.5,108C 249.124,108.576 249.791,109.91 248.5,112C 249.944,113.126 250.61,114.626 250.5,116.5C 250.158,118.867 249.658,121.2 249,123.5C 245.124,126.009 242.124,128.675 240,131.5C 239.282,130.549 238.449,130.383 237.5,131C 234.641,134.241 232.141,137.741 230,141.5C 227.094,144.037 223.927,146.204 220.5,148C 221.527,152.8 219.86,156.633 215.5,159.5C 210.243,162.575 204.91,164.575 199.5,165.5C 202.27,169.411 204.104,173.411 205,177.5C 207.637,174.04 210.637,173.707 214,176.5C 216.057,175.86 218.223,176.027 220.5,177C 222.056,178.599 223.723,180.099 225.5,181.5C 227.926,179.052 230.426,179.052 233,181.5C 235.54,180.124 237.54,180.79 239,183.5C 239.794,186.831 241.961,188.664 245.5,189C 246.667,190.167 247.833,191.333 249,192.5C 257.477,190.547 262.311,194.214 263.5,203.5C 264.167,203.167 264.833,202.833 265.5,202.5C 268.132,204.059 270.632,205.726 273,207.5C 273.526,210.911 274.359,214.245 275.5,217.5C 273.28,220.785 272.113,224.451 272,228.5C 269.847,230.444 267.347,230.944 264.5,230C 263.219,227.597 261.386,225.763 259,224.5C 258.21,226.79 256.876,227.123 255,225.5C 251.336,226.624 247.836,228.124 244.5,230C 242.559,230.743 240.726,230.576 239,229.5C 238.934,232.276 237.768,234.442 235.5,236C 232.536,237.973 229.369,239.473 226,240.5C 219.974,239.444 213.807,238.611 207.5,238C 202.494,235.819 198.16,232.653 194.5,228.5C 193.914,228.709 193.414,229.043 193,229.5C 192.721,232.606 192.888,235.439 193.5,238C 191.792,239.062 191.126,240.229 191.5,241.5C 189.032,240.197 186.699,238.697 184.5,237C 182.042,232.712 179.042,228.879 175.5,225.5C 175.478,227.921 174.478,230.254 172.5,232.5C 176.059,240.409 173.725,242.576 165.5,239C 162.656,236.655 159.99,234.155 157.5,231.5C 156.699,226.227 155.033,221.227 152.5,216.5C 141.578,212.032 134.911,204.198 132.5,193C 130.716,189.883 129.383,186.55 128.5,183C 129.369,181.535 128.869,180.369 127,179.5C 125.273,179.646 125.106,180.313 126.5,181.5C 125.96,182.748 125.293,183.915 124.5,185C 121.068,187.665 117.401,189.831 113.5,191.5C 116.923,194.031 117.257,196.865 114.5,200C 116.731,202.197 116.731,204.53 114.5,207C 114.833,207.333 115.167,207.667 115.5,208C 113.545,208.953 111.878,210.287 110.5,212C 113.914,215.373 114.414,219.206 112,223.5C 109.92,225.123 107.754,226.623 105.5,228C 105.833,228.333 106.167,228.667 106.5,229C 105.666,231.673 104.333,234.007 102.5,236C 104.298,244.473 100.631,249.64 91.5,251.5C 92.1667,252.5 92.8333,253.5 93.5,254.5C 92.2048,256.328 91.2048,258.328 90.5,260.5C 86.1728,261.821 81.8395,263.154 77.5,264.5C 75.6171,264.124 74.1171,263.124 73,261.5C 70.1883,262.537 67.6883,261.87 65.5,259.5C 64.9984,258.284 64.6651,257.117 64.5,256C 66.7954,253.699 68.7954,251.199 70.5,248.5C 70.1543,247.304 69.6543,247.304 69,248.5C 68.3486,246.765 68.5153,245.098 69.5,243.5C 68.1291,240.226 66.2958,237.226 64,234.5C 63.5045,232.527 63.3379,230.527 63.5,228.5C 61.4176,228.528 59.5843,227.861 58,226.5C 55.8176,222.99 53.651,219.49 51.5,216C 52.0294,214.441 52.696,212.941 53.5,211.5C 53.3493,209.335 52.6826,207.002 51.5,204.5C 53.7227,197.115 57.056,190.281 61.5,184C 58.7138,182.547 55.8804,182.714 53,184.5C 51.414,183.624 49.914,182.624 48.5,181.5C 49.5014,178.827 51.0014,176.493 53,174.5C 57.1233,172.044 60.6233,168.878 63.5,165C 62.451,164.508 61.451,164.674 60.5,165.5C 59.1667,164.5 57.8333,163.5 56.5,162.5C 50.6862,167.248 47.6862,166.081 47.5,159C 51.455,151.051 57.7884,146.051 66.5,144C 68.3492,142.907 70.0158,141.574 71.5,140C 71.1667,139.667 70.8333,139.333 70.5,139C 72.0614,138.059 73.3947,136.892 74.5,135.5C 73.8728,134.583 73.5394,133.583 73.5,132.5C 74.2891,132.217 74.9558,131.717 75.5,131C 74.2506,130.26 73.2506,130.427 72.5,131.5C 66.6504,133.321 60.6504,133.821 54.5,133C 48.8588,128.029 43.1921,123.029 37.5,118C 35.322,117.835 33.4886,118.668 32,120.5C 31.0754,119.953 30.2421,119.287 29.5,118.5C 26.4298,112.276 23.7631,105.942 21.5,99.5C 18.4805,98.2821 15.3138,97.2821 12,96.5C 10.6988,95.9019 9.86549,94.9019 9.5,93.5C 13.2712,90.6759 16.9378,87.6759 20.5,84.5C 20.8459,81.6773 20.3459,79.0106 19,76.5C 23.6976,69.7641 27.8643,62.7641 31.5,55.5C 28.9509,52.1979 28.1176,48.5312 29,44.5C 30.3561,43.6198 31.8561,43.2865 33.5,43.5C 33.4184,38.6544 35.5851,35.321 40,33.5C 40.6891,34.3567 41.5224,35.0233 42.5,35.5C 45.0548,32.0869 47.8882,28.7536 51,25.5C 51.5613,26.0219 52.228,26.3552 53,26.5C 57.4262,24.1969 61.9262,22.1969 66.5,20.5C 66.8501,16.4537 66.1834,12.6203 64.5,9C 65.8168,7.34094 67.4835,6.17427 69.5,5.5C 71.583,6.95873 73.7497,8.29206 76,9.5C 77.2754,11.7173 78.2754,14.0506 79,16.5C 80.2988,16.0338 81.7988,16.0338 83.5,16.5C 83.4914,18.3084 83.9914,19.9751 85,21.5C 89.345,17.9116 94.1784,15.2449 99.5,13.5C 105.857,17.3586 111.024,22.3586 115,28.5C 116.808,26.6041 118.975,26.1041 121.5,27C 126.333,29.1667 129.833,32.6667 132,37.5C 134.454,36.6563 136.954,35.6563 139.5,34.5C 141.777,34.0145 143.944,34.6812 146,36.5C 150.702,30.2816 155.535,24.1149 160.5,18C 159.333,16.8333 158.167,15.6667 157,14.5C 156.251,13.365 156.417,12.365 157.5,11.5C 163.342,8.07855 169.342,4.91188 175.5,2C 176.252,1.32924 176.586,0.495904 176.5,-0.5 Z M 72.5,131.5 C 73.2506,130.427 74.2506,130.26 75.5,131C 74.9558,131.717 74.2891,132.217 73.5,132.5C 73.5,131.833 73.1667,131.5 72.5,131.5 Z"></path></g></svg>